<svg width="67" height="52" viewBox="0 0 67 52" fill="none" xmlns="http://www.w3.org/2000/svg">
<path d="M56 42.7042C56 43.6361 56.8508 45.3508 58.5 47C59.5 48 61.5 48.5 61 50.5C60.5702 52.2191 57.3494 51.5 55 50.5C53.5 49.8615 49.9 46.8657 49.5 45.0161C51.8355 44.4571 54.02 43.6741 56 42.7042Z" fill="white"/>
<path d="M67 28C67 34.0734 62.6552 39.4443 56 42.7042C54.02 43.6741 51.8355 44.4571 49.5 45.0161C46.8365 45.6537 43.9767 46 41 46C32.9568 46 25.7692 43.9715 21 40C24.9979 41.2 32.4821 40.4218 34.5 40C40 38.8505 42.0449 38 46.5 35C51.6976 31.5 55.9444 26.5 56.5 21.5C57 17 56.5 14.6904 56 13.2958C62.6552 16.5557 67 21.9266 67 28Z" fill="white"/>
<path d="M52 18C52 27.9411 40.3594 36 26 36C23.0233 36 20.1635 35.6537 17.5 35.0161C15.1645 34.457 12.98 33.674 11 32.7042C4.34482 29.4443 0 24.0734 0 18C0 8.05887 11.6406 0 26 0C40.3594 0 52 8.05887 52 18ZM6.45188 18C6.45188 25.4742 15.2039 31.5333 26 31.5333C36.7961 31.5333 45.5481 25.4742 45.5481 18C45.5481 10.5258 36.7961 4.46668 26 4.46668C15.2039 4.46668 6.45188 10.5258 6.45188 18Z" fill="white"/>
<path d="M11 32.7042C11 33.6361 10.1492 35.3508 8.5 37C7.5 38 5.5 38.5 6 40.5C6.42977 42.2191 9.65063 41.5 12 40.5C13.5 39.8615 17.1 36.8656 17.5 35.0161C15.1645 34.457 12.98 33.674 11 32.7042Z" fill="white"/>
</svg>
