<svg width="45" height="43" viewBox="0 0 45 43" fill="none" xmlns="http://www.w3.org/2000/svg">
<path fill-rule="evenodd" clip-rule="evenodd" d="M22.9961 0.569344C22.6339 -0.189781 21.5534 -0.189781 21.1912 0.569344L15.271 12.9759C15.1253 13.2814 14.8349 13.4924 14.4992 13.5367L0.870519 15.3332C0.036535 15.4431 -0.297327 16.4708 0.312658 17.0499L10.2826 26.5141C10.5281 26.7471 10.6391 27.0886 10.5774 27.4214L8.0745 40.9383C7.9213 41.7653 8.79557 42.4005 9.53483 41.9992L21.6166 35.4419C21.9142 35.2804 22.2731 35.2804 22.5707 35.4419L34.6525 41.9992C35.3918 42.4005 36.266 41.7653 36.1128 40.9383L33.6099 27.4214C33.5483 27.0886 33.6592 26.7471 33.9047 26.5141L43.8747 17.0499C44.4847 16.4708 44.1508 15.4431 43.3168 15.3332L29.6881 13.5367C29.3525 13.4924 29.062 13.2814 28.9163 12.9759L22.9961 0.569344ZM22.9961 7.56934C22.6339 6.81022 21.5534 6.81022 21.1912 7.56934L17.2871 15.7508C17.1414 16.0563 16.8509 16.2673 16.5153 16.3116L7.52787 17.4963C6.69401 17.6062 6.36002 18.6339 6.97013 19.213L13.5447 25.4541C13.7902 25.6872 13.9012 26.0286 13.8395 26.3615L12.189 35.2752C12.0358 36.1022 12.9101 36.7373 13.6493 36.3361L21.6166 32.0119C21.9142 31.8504 22.2731 31.8504 22.5707 32.0119L30.538 36.3361C31.2773 36.7373 32.1515 36.1022 31.9983 35.2752L30.3478 26.3615C30.2862 26.0286 30.3971 25.6872 30.6426 25.4541L37.2172 19.213C37.8273 18.6339 37.4933 17.6062 36.6595 17.4963L27.672 16.3116C27.3365 16.2673 27.0459 16.0563 26.9002 15.7508L22.9961 7.56934Z" fill="#F19E1F"/>
</svg>
