<svg width="58" height="69" viewBox="0 0 58 69" fill="none" xmlns="http://www.w3.org/2000/svg">
<path d="M3 69C3 63.5 7.4 52 23 52" stroke="white" stroke-width="6"/>
<path d="M55 69C55 63.5 50.6 52 35 52" stroke="white" stroke-width="6"/>
<path d="M15.4917 43C18.3193 47.5228 22.6599 51 29 51C35.34 51 39.6807 47.5228 42.5082 43" stroke="white" stroke-width="2" stroke-linejoin="round"/>
<path d="M11 27V25.5C10.1716 25.5 9.5 26.1716 9.5 27H11ZM47 27L48.5 27C48.5 26.1716 47.8284 25.5 47 25.5V27ZM21 27V28.5C21.7333 28.5 22.359 27.9699 22.4796 27.2466L21 27ZM23 15L24.4685 14.6941C24.3212 13.9874 23.6915 13.4858 22.9698 13.5003C22.2481 13.5148 21.6391 14.0414 21.5204 14.7534L23 15ZM25.5 27L24.0315 27.3059C24.1764 28.0015 24.7895 28.5 25.5 28.5V27ZM29 27V28.5C29.6985 28.5 30.3045 28.0179 30.4616 27.3373L29 27ZM30.5 20.5L31.9337 20.0589C31.7342 19.4104 31.1242 18.9766 30.4462 19.001C29.7682 19.0253 29.191 19.5016 29.0384 20.1627L30.5 20.5ZM32.5 27L31.0663 27.4411C31.26 28.0705 31.8415 28.5 32.5 28.5V27ZM15.6976 44.7442C16.1087 45.4635 17.0249 45.7134 17.7442 45.3024C18.4635 44.8913 18.7134 43.9751 18.3024 43.2558L15.6976 44.7442ZM39.7813 43.1255C39.2983 43.7985 39.4524 44.7357 40.1255 45.2187C40.7985 45.7017 41.7357 45.5476 42.2187 44.8745L39.7813 43.1255ZM11 28.5H21V25.5H11V28.5ZM22.4796 27.2466L24.4796 15.2466L21.5204 14.7534L19.5204 26.7534L22.4796 27.2466ZM21.5315 15.3059L24.0315 27.3059L26.9685 26.6941L24.4685 14.6941L21.5315 15.3059ZM25.5 28.5H29V25.5H25.5V28.5ZM30.4616 27.3373L31.9616 20.8373L29.0384 20.1627L27.5384 26.6627L30.4616 27.3373ZM32.5 28.5H47V25.5H32.5V28.5ZM29.0663 20.9411L31.0663 27.4411L33.9337 26.5589L31.9337 20.0589L29.0663 20.9411ZM9.5 27C9.5 30.2902 10.5857 33.8793 11.8612 37.0043C13.1476 40.156 14.6848 42.9717 15.6976 44.7442L18.3024 43.2558C17.3152 41.5283 15.8524 38.844 14.6388 35.8707C13.4143 32.8707 12.5 29.7098 12.5 27H9.5ZM45.5 27C45.5 33.1084 43.6071 37.7942 39.7813 43.1255L42.2187 44.8745C46.3077 39.1764 48.5 33.8916 48.5 27L45.5 27Z" fill="white"/>
<path d="M15.4041 43L7.94483 46C-0.514619 37 3.71504 3 29.622 3C55.2824 3 59.4716 37 51.0927 46L42.7139 43" stroke="white" stroke-width="6" stroke-linejoin="round"/>
<circle cx="23" cy="33" r="2" fill="white"/>
<circle cx="36" cy="33" r="2" fill="white"/>
</svg>
