<svg width="59" height="60" viewBox="0 0 59 60" fill="none" xmlns="http://www.w3.org/2000/svg">
<path d="M30.701 34.1801L27.8933 31.9999C27.0382 31.2908 25.8687 30.3548 25.8687 28.6412C25.8687 26.9206 27.0382 25.8266 28.054 24.8137C31.3249 22.2395 34.5922 19.4997 34.5922 13.726C34.5922 7.78888 30.8561 4.66557 29.0656 3.18392H33.8943L38.9614 0H23.6087C19.3961 0 13.3253 0.996694 8.88068 4.66557C5.53087 7.55556 3.89684 11.5402 3.89684 15.1273C3.89684 21.2168 8.57263 27.3894 16.8302 27.3894C17.6091 27.3894 18.4621 27.3132 19.3207 27.2329C18.9351 28.1711 18.5452 28.9514 18.5452 30.2779C18.5452 32.6964 19.788 34.1787 20.8835 35.5835C17.3744 35.8246 10.8249 36.2137 5.99753 39.1812C1.39928 41.9154 0 45.8945 0 48.7041C0 54.4855 5.44909 59.8707 16.7505 59.8707C30.1512 59.8707 37.2456 52.4561 37.2456 45.1163C37.2463 39.724 34.1305 37.0694 30.701 34.1801ZM20.4944 25.2021C13.7905 25.2021 10.7544 16.5364 10.7544 11.3076C10.7544 9.27123 11.14 7.16999 12.4659 5.52834C13.7158 3.96492 15.8926 2.95061 17.9249 2.95061C24.3877 2.95061 27.7396 11.6939 27.7396 17.3174C27.7396 18.7243 27.5845 21.2175 25.7926 23.0198C24.5385 24.2703 22.4414 25.2021 20.4944 25.2021V25.2021ZM20.5712 56.5994C12.2347 56.5994 6.85895 52.6119 6.85895 47.0674C6.85895 41.5242 11.8435 39.65 13.5586 39.029C16.8302 37.928 21.0386 37.775 21.7407 37.775C22.5189 37.775 22.9095 37.775 23.5298 37.8525C29.4554 42.0698 32.0284 44.1724 32.0284 48.1649C32.0284 52.9989 28.0533 56.5994 20.5712 56.5994V56.5994ZM50.3784 25.083V17.2765H46.5224V25.083H38.728V28.9817H46.5224V36.8361H50.3784V28.9817H58.2122V25.083H50.3784Z" fill="white"/>
</svg>
