<svg width="47" height="37" viewBox="0 0 47 37" fill="none" xmlns="http://www.w3.org/2000/svg">
<path fill-rule="evenodd" clip-rule="evenodd" d="M12.4314 9.46915C19.6314 5.46915 26.2646 5.6358 28.9313 5.96913C31.7647 6.46913 37.9313 6.66913 39.9313 3.46913C42.4313 -0.530865 44.4313 0.969139 45.4313 3.46913C46.4313 5.96913 48.4313 17.9691 41.4313 25.4691C34.4313 32.9691 27.8828 34.749 23.9314 35.4691C17.8285 36.5814 11.4135 34.3297 8.93134 32.4691L5.43137 35.4691C2.43131 37.4691 -0.568726 34.4691 1.93129 31.9691L6.39356 27.9691C4.78576 22.2338 6.25 12.9032 12.4314 9.46915ZM28.9313 13.9691C25.8199 13.9691 22.0674 14.8976 19 16.5C15.1664 18.5027 12.2645 21.3581 11.4313 22.4691C10.6503 23.5105 9.33133 25.7691 10.9313 26.9691C12.5312 28.1691 14.0885 26.8119 14.9313 25.9691C15.9313 24.9691 17.5313 22.7691 21.9313 19.9691C26.3313 17.1691 32.0705 17.8763 33.4313 16.9691C34.9313 15.9691 35.236 13.9691 28.9313 13.9691Z" fill="white" stroke="white"/>
</svg>
