<svg width="416" height="411" viewBox="0 0 416 411" fill="none" xmlns="http://www.w3.org/2000/svg">
<path d="M208 167.5V411L83 167.5H208Z" fill="#D1D2D3"/>
<path d="M208 167.5V411L333 167.5H208Z" fill="#E6E7E8"/>
<path d="M207.5 167.53C192.5 233.53 89.5 222.53 1.5 192.03C13.5 171.03 20.524 151.537 27.5 119.53C42.5158 50.6366 98.2291 -36.2698 207.5 18.0304V167.53Z" fill="#8DC53E" stroke="#8DC53E"/>
<path d="M211 111.03C211 150.519 178.988 182.53 139.5 182.53C100.012 182.53 68 150.519 68 111.03C68 71.5421 100.012 39.5304 139.5 39.5304C178.988 39.5304 211 71.5421 211 111.03ZM91.4731 111.03C91.4731 137.555 112.976 159.057 139.5 159.057C166.024 159.057 187.527 137.555 187.527 111.03C187.527 84.5059 166.024 63.0036 139.5 63.0036C112.976 63.0036 91.4731 84.5059 91.4731 111.03Z" fill="white"/>
<circle cx="139" cy="110.53" r="33" fill="black"/>
<path d="M208.5 167.53C223.5 233.53 326.5 222.53 414.5 192.03C402.5 171.03 395.476 151.537 388.5 119.53C373.484 50.6366 317.771 -36.2698 208.5 18.0304V167.53Z" fill="#1BAE5D" stroke="#1BAE5D"/>
<path d="M205 111.03C205 150.519 237.012 182.53 276.5 182.53C315.988 182.53 348 150.519 348 111.03C348 71.5421 315.988 39.5304 276.5 39.5304C237.012 39.5304 205 71.5421 205 111.03ZM324.527 111.03C324.527 137.555 303.024 159.057 276.5 159.057C249.976 159.057 228.473 137.555 228.473 111.03C228.473 84.5059 249.976 63.0036 276.5 63.0036C303.024 63.0036 324.527 84.5059 324.527 111.03Z" fill="white"/>
<circle r="33" transform="matrix(-1 0 0 1 277 110.53)" fill="black"/>
</svg>
