<svg width="54" height="40" viewBox="0 0 54 40" fill="none" xmlns="http://www.w3.org/2000/svg">
<path d="M2 8.5L20.5 24.5C24.5 28 29.5 28 33.5 24.5L52 8.5" stroke="white" stroke-width="4"/>
<path fill-rule="evenodd" clip-rule="evenodd" d="M4 0C1.79086 0 0 1.79086 0 4V36C0 38.2091 1.79086 40 4 40H50C52.2091 40 54 38.2091 54 36V4C54 1.79086 52.2091 0 50 0H4ZM6 4C4.89543 4 4 4.89543 4 6V34C4 35.1046 4.89543 36 6 36H48C49.1046 36 50 35.1046 50 34V6C50 4.89543 49.1046 4 48 4H6Z" fill="white"/>
</svg>
