<svg width="79" height="77" viewBox="0 0 79 77" fill="none" xmlns="http://www.w3.org/2000/svg">
<path d="M27.6193 57V26.5M71.1193 46V16.5M27.6193 26.5V13L71.1193 3V16.5M27.6193 26.5L71.1193 16.5" stroke="#9DACAD" stroke-width="6" stroke-linejoin="round"/>
<path d="M23.4865 68.3314C17.0526 72.9618 9.18706 73.0336 5.91841 68.4918C2.64975 63.95 5.21572 56.5145 11.6497 51.8841C18.0836 47.2537 25.9491 47.1819 29.2177 51.7237C30.1935 53.0795 30.6493 54.6933 30.6375 56.4133C30.6096 60.4549 27.9997 65.0833 23.4865 68.3314ZM14.6089 55.9959C11.3919 58.3111 10.1089 62.0288 11.7432 64.2997C13.3776 66.5706 17.3103 66.5347 20.5273 64.2195C23.7443 61.9044 25.0272 58.1866 23.3929 55.9157C21.7586 53.6448 17.8258 53.6807 14.6089 55.9959Z" fill="#9DACAD"/>
<path d="M66.9865 57.3314C60.5526 61.9618 52.6871 62.0336 49.4184 57.4918C46.1498 52.95 48.7157 45.5145 55.1497 40.8841C61.5836 36.2537 69.4491 36.1819 72.7177 40.7237C75.9864 45.2655 73.4204 52.701 66.9865 57.3314ZM58.1089 44.9959C54.8919 47.3111 53.6089 51.0288 55.2432 53.2997C56.8776 55.5706 60.8103 55.5347 64.0273 53.2195C67.2443 50.9044 68.5272 47.1866 66.8929 44.9157C65.2586 42.6448 61.3258 42.6807 58.1089 44.9959Z" fill="#9DACAD"/>
</svg>
