<svg width="18" height="30" viewBox="0 0 18 30" fill="none" xmlns="http://www.w3.org/2000/svg">
<path fill-rule="evenodd" clip-rule="evenodd" d="M8.86551 28.9994L1.7165 12.4994C0.254684 8.99937 0.318443 1.00002 8.89472 1.00002C17.471 1.00002 17.5057 8.99937 16.0439 12.4994L8.86551 28.9994ZM3.66571 8.99932C3.66571 5.99937 5.48375 3.50061 8.89472 3.50061C12.3057 3.50061 14.0947 5.99937 14.0947 8.99932C14.0947 11.9993 12.2765 14.4974 8.86551 14.4974C5.45454 14.4974 3.66571 11.9993 3.66571 8.99932Z" fill="white"/>
<path d="M8.86551 28.9994L7.94793 29.397C8.10629 29.7624 8.46645 29.9991 8.86476 29.9994C9.26308 29.9997 9.62359 29.7636 9.78249 29.3983L8.86551 28.9994ZM1.7165 12.4994L0.793667 12.8848L0.798923 12.8969L1.7165 12.4994ZM16.0439 12.4994L16.9609 12.8983L16.9638 12.8916L16.9666 12.8848L16.0439 12.4994ZM9.78309 28.6018L2.63407 12.1018L0.798923 12.8969L7.94793 29.397L9.78309 28.6018ZM2.63925 12.114C1.98717 10.5527 1.67739 7.943 2.47876 5.78536C2.87059 4.73037 3.51936 3.80301 4.50984 3.13283C5.50178 2.46165 6.90824 2.00002 8.89472 2.00002V1.72374e-05C6.59306 1.72374e-05 4.77545 0.538299 3.38904 1.47638C2.00116 2.41546 1.11731 3.70668 0.603894 5.08903C-0.40524 7.80607 -0.0159875 10.946 0.793748 12.8848L2.63925 12.114ZM8.89472 2.50061C6.92605 2.50061 5.33683 3.2314 4.25082 4.46387C3.17969 5.67946 2.66571 7.30426 2.66571 8.99932H4.66571C4.66571 7.69443 5.06075 6.56988 5.75138 5.78611C6.42714 5.01921 7.45243 4.50061 8.89472 4.50061V2.50061ZM2.66571 8.99932C2.66571 10.6904 3.17009 12.3146 4.23354 13.5314C5.31277 14.7662 6.89629 15.4974 8.86551 15.4974V13.4974C7.42376 13.4974 6.40738 12.9795 5.73945 12.2153C5.05574 11.433 4.66571 10.3082 4.66571 8.99932H2.66571ZM9.78249 29.3983L16.9609 12.8983L15.1269 12.1004L7.94853 28.6005L9.78249 29.3983ZM16.9666 12.8848C17.7755 10.9481 18.1731 7.809 17.1719 5.09148C16.6625 3.7088 15.7824 2.41673 14.3967 1.47698C13.0126 0.538276 11.1963 1.72374e-05 8.89472 1.72374e-05V2.00002C10.8813 2.00002 12.2854 2.46168 13.2742 3.13223C14.2614 3.80173 14.9067 4.72825 15.2953 5.78291C16.09 7.94007 15.7741 10.5506 15.1211 12.114L16.9666 12.8848ZM8.89472 4.50061C10.3364 4.50061 11.3528 5.01861 12.0208 5.78302C12.7046 6.56548 13.0947 7.69045 13.0947 8.99932H15.0947C15.0947 7.30824 14.5903 5.68385 13.5268 4.46695C12.4476 3.23199 10.864 2.50061 8.89472 2.50061V4.50061ZM13.0947 8.99932C13.0947 10.3042 12.6996 11.4285 12.009 12.2121C11.3332 12.9789 10.3079 13.4974 8.86551 13.4974V15.4974C10.8341 15.4974 12.4234 14.7668 13.5094 13.5345C14.5806 12.3191 15.0947 10.6944 15.0947 8.99932H13.0947Z" fill="white"/>
</svg>
