<svg width="76" height="76" viewBox="0 0 76 76" fill="none" xmlns="http://www.w3.org/2000/svg">
<path d="M64 32C64 49.6731 49.6731 64 32 64C14.3269 64 0 49.6731 0 32C0 14.3269 14.3269 0 32 0C49.6731 0 64 14.3269 64 32ZM10.2177 32C10.2177 44.03 19.97 53.7823 32 53.7823C44.03 53.7823 53.7823 44.03 53.7823 32C53.7823 19.97 44.03 10.2177 32 10.2177C19.97 10.2177 10.2177 19.97 10.2177 32Z" fill="black"/>
<path d="M57.8757 50.8306C55.9077 53.5302 53.5276 55.9101 50.8277 57.8778L66.6272 74.4445C68.5322 76.4435 71.6972 76.5197 73.6962 74.6146C75.6952 72.7095 75.7713 69.5446 73.8662 67.5456L57.8757 50.8306Z" fill="black"/>
</svg>
