<svg width="45" height="43" viewBox="0 0 45 43" fill="none" xmlns="http://www.w3.org/2000/svg">
<path d="M21.1911 0.569342C21.5534 -0.18978 22.6339 -0.189781 22.9962 0.569341L28.9163 12.9759C29.0621 13.2814 29.3525 13.4924 29.6881 13.5367L43.3169 15.3332C44.1508 15.4431 44.4847 16.4708 43.8746 17.0499L33.9047 26.5141C33.6592 26.7471 33.5483 27.0885 33.6099 27.4214L36.1128 40.9383C36.266 41.7653 35.3918 42.4005 34.6525 41.9992L22.5707 35.4419C22.2732 35.2804 21.9142 35.2804 21.6166 35.4419L9.53479 41.9992C8.79554 42.4005 7.92134 41.7653 8.07449 40.9383L10.5774 27.4214C10.639 27.0885 10.5281 26.7471 10.2826 26.5141L0.312681 17.0499C-0.29735 16.4708 0.0365605 15.4431 0.870465 15.3332L14.4992 13.5367C14.8348 13.4924 15.1253 13.2814 15.271 12.9759L21.1911 0.569342Z" fill="#F19E1F"/>
</svg>
