<svg width="56" height="24" viewBox="0 0 56 24" fill="none" xmlns="http://www.w3.org/2000/svg">
<path d="M20.9 19.3H18.78V18.06C17.98 19 17.28 19.46 16.55 19.46C15.89 19.46 15.45 19.16 15.21 18.59C15.09 18.24 14.99 17.71 14.99 16.92V7.89999H17.11V17.16C17.16 17.46 17.29 17.58 17.56 17.58C17.96 17.58 18.34 17.21 18.79 16.58V7.89999H20.91V19.3H20.9ZM13.4 11.62C13.4 10.4 13.17 9.48999 12.74 8.91999C12.18 8.11999 11.29 7.81999 10.39 7.81999C9.37 7.81999 8.59 8.11999 8.04 8.91999C7.6 9.48999 7.37 10.42 7.37 11.62V15.69C7.37 16.89 7.57 17.73 8.01 18.29C8.57 19.09 9.49 19.49 10.38 19.49C11.28 19.49 12.2 19.09 12.78 18.29C13.18 17.73 13.38 16.89 13.38 15.69V11.6L13.4 11.62ZM11.3 15.92C11.4 17.05 11.05 17.62 10.4 17.62C9.74 17.62 9.4 17.05 9.5 15.92V11.4C9.4 10.27 9.74 9.73999 10.4 9.73999C11.05 9.73999 11.4 10.27 11.3 11.4V15.92V15.92ZM5.03 13.1V19.3H2.8V13.1C2.8 13.1 0.47 5.45999 0 4.03999H2.35L3.92 9.99999L5.48 4.04999H7.82L5.02 13.09" fill="white"/>
<path d="M42.74 9.7C42.41 9.7 42.04 9.9 41.69 10.22V17.08C42.02 17.42 42.39 17.58 42.73 17.58C43.33 17.58 43.58 17.16 43.58 16.03V11.17C43.58 10.04 43.31 9.71 42.72 9.71L42.74 9.7ZM51.08 11.07C51.08 10.02 50.81 9.71 50.14 9.71C49.47 9.71 49.18 10.01 49.18 11.06V12.31H51.08V11.08" fill="white"/>
<path d="M55.67 5.28C55.67 5.28 55.34 2.98 54.34 1.95C53.07 0.599997 51.64 0.599997 51 0.529997C46.33 0.199997 39.32 0.199997 39.32 0.199997H39.3C39.3 0.199997 32.3 0.199997 27.63 0.529997C26.98 0.609997 25.55 0.609997 24.28 1.95C23.28 2.97 22.96 5.28 22.96 5.28C22.96 5.28 22.62 8 22.62 10.72V13.27C22.62 15.99 22.96 18.7 22.96 18.7C22.96 18.7 23.28 21.02 24.28 22.04C25.55 23.38 27.22 23.34 27.96 23.47C30.63 23.73 39.31 23.81 39.31 23.81C39.31 23.81 46.34 23.81 51.01 23.47C51.66 23.39 53.08 23.39 54.35 22.05C55.35 21.03 55.68 18.71 55.68 18.71C55.68 18.71 56 16 56 13.27V10.72C56 8 55.67 5.28 55.67 5.28V5.28ZM29.95 19.3H27.72V6.3H25.37V4.18H32.41V6.3H29.96V19.3H29.95ZM38 19.3H35.88V18.06C35.08 19 34.38 19.46 33.65 19.46C32.99 19.46 32.55 19.16 32.31 18.59C32.19 18.24 32.09 17.71 32.09 16.92V8H34.21V17.17C34.26 17.47 34.39 17.59 34.66 17.59C35.06 17.59 35.44 17.22 35.89 16.59V8H38V19.3ZM45.7 15.92C45.7 16.96 45.63 17.7 45.5 18.18C45.22 19.02 44.63 19.45 43.83 19.45C43.11 19.45 42.37 19.01 41.69 18.17V19.31H39.67V4.18H41.67V9.1C42.33 8.3 43.07 7.83 43.82 7.83C44.62 7.83 45.16 8.3 45.42 9.13C45.57 9.6 45.7 10.33 45.7 11.4V15.92V15.92ZM50.16 17.59C50.66 17.59 50.96 17.31 51.06 16.76C51.08 16.66 51.08 16.16 51.08 15.34H53.2V15.66C53.2 16.32 53.15 16.79 53.13 16.99C53.06 17.45 52.9 17.86 52.66 18.22C52.1 19.04 51.26 19.44 50.21 19.44C49.16 19.44 48.36 19.06 47.77 18.28C47.34 17.71 47.07 16.88 47.07 15.68V11.72C47.07 10.52 47.32 9.58 47.75 9C48.33 8.23 49.15 7.82 50.17 7.82C51.19 7.82 51.99 8.22 52.57 9C52.97 9.58 53.22 10.46 53.22 11.67V14H49.2V16.02C49.2 17.07 49.5 17.59 50.18 17.59H50.16Z" fill="white"/>
</svg>
